<?xml version="1.0" encoding="UTF-8" standalone="no"?><!-- Generator: Gravit.io --><svg xmlns="http://www.w3.org/2000/svg" xmlns:xlink="http://www.w3.org/1999/xlink" style="isolation:isolate" viewBox="0 0 512 512" width="512pt" height="512pt"><defs><clipPath id="_clipPath_WKnDJjSWmIrigOZQyVUVPDFt8PFx0We4"><rect width="512" height="512"/></clipPath></defs><g clip-path="url(#_clipPath_WKnDJjSWmIrigOZQyVUVPDFt8PFx0We4)"><path d=" M 500.274 443.652 L 380.586 323.965 C 407.804 283.559 421.232 233.075 414.043 179.281 C 401.784 87.78 326.792 13.318 235.202 1.722 C 99.027 -15.509 -15.481 98.999 1.751 235.175 C 13.35 326.805 87.822 401.857 179.332 414.055 C 233.126 421.244 283.621 407.82 324.017 380.599 L 443.704 500.286 C 459.322 515.905 484.649 515.905 500.268 500.286 C 515.872 484.648 515.872 459.251 500.274 443.652 Z  M 79.119 207.977 C 79.119 137.405 136.533 79.991 207.105 79.991 C 277.677 79.991 335.091 137.405 335.091 207.977 C 335.091 278.55 277.677 335.964 207.105 335.964 C 136.533 335.964 79.119 278.57 79.119 207.977 Z " fill="rgb(255,255,255)"/></g></svg>