<?xml version="1.0" encoding="UTF-8" standalone="no"?><!-- Generator: Gravit.io --><svg xmlns="http://www.w3.org/2000/svg" xmlns:xlink="http://www.w3.org/1999/xlink" style="isolation:isolate" viewBox="0 0 512 512" width="512pt" height="512pt"><defs><clipPath id="_clipPath_bJDNEu5L22VvlZLRzEK26FJONzb1TPh9"><rect width="512" height="512"/></clipPath></defs><g clip-path="url(#_clipPath_bJDNEu5L22VvlZLRzEK26FJONzb1TPh9)"><path d=" M 501.301 132.328 C 495.413 110.156 478.063 92.694 456.035 86.768 C 416.107 76 256 76 256 76 C 256 76 95.894 76 55.965 86.768 C 33.937 92.695 16.587 110.156 10.699 132.328 C 0 172.516 0 256.364 0 256.364 C 0 256.364 0 340.212 10.699 380.4 C 16.587 402.571 33.937 419.306 55.965 425.232 C 95.894 436 256 436 256 436 C 256 436 416.106 436 456.035 425.232 C 478.063 419.306 495.413 402.571 501.301 380.4 C 512 340.212 512 256.364 512 256.364 C 512 256.364 512 172.516 501.301 132.328 L 501.301 132.328 Z  M 203.636 332.491 L 203.636 180.236 L 337.454 256.366 L 203.636 332.491 L 203.636 332.491 Z " fill="rgb(255,0,0)"/></g></svg>